<svg width="22" height="24" viewBox="0 0 22 24" fill="none" xmlns="http://www.w3.org/2000/svg">
<path fill-rule="evenodd" clip-rule="evenodd" d="M15.1279 14.9646H6.8714C4.44137 15.0732 2.28847 16.4091 1.31155 18.4145C0.133248 20.4965 2.48485 22.4644 5.21978 22.4644H16.7795C19.5161 22.4644 21.8677 20.4965 20.6877 18.4145C19.7108 16.4091 17.5579 15.0732 15.1279 14.9646Z" stroke="#323232" stroke-opacity="0.2" stroke-width="1.5" stroke-linecap="round" stroke-linejoin="round"/>
<path fill-rule="evenodd" clip-rule="evenodd" d="M15.9996 5.96473C15.9996 8.44994 13.7611 10.4646 10.9997 10.4646C8.2384 10.4646 5.99988 8.44994 5.99988 5.96473C5.99988 3.47951 8.2384 1.46484 10.9997 1.46484C12.3258 1.46484 13.5975 1.93894 14.5352 2.78283C15.4728 3.62672 15.9996 4.77128 15.9996 5.96473Z" stroke="#323232" stroke-opacity="0.2" stroke-width="1.5" stroke-linecap="round" stroke-linejoin="round"/>
</svg>
