<svg width="25" height="24" viewBox="0 0 25 24" fill="none" xmlns="http://www.w3.org/2000/svg">
<path d="M2.61538 16.7514L9.97707 9.38967C10.095 9.27172 10.1481 9.0991 10.1253 8.93386C9.08835 1.42475 14.9215 0.583544 18.2864 1.13735C18.4235 1.15992 18.4746 1.32725 18.3763 1.42555L14.6381 5.16378C14.5084 5.29347 14.4563 5.4817 14.5007 5.65964L15.3103 8.89803C15.3571 9.08511 15.5032 9.23118 15.6903 9.27795L18.9287 10.0875C19.1066 10.132 19.2948 10.0799 19.4245 9.9502L23.1381 6.2366C23.2411 6.13366 23.4173 6.20124 23.4311 6.34617C24.1718 14.1715 18.768 14.8952 15.6755 14.2303C15.4954 14.1915 15.3065 14.2423 15.1762 14.3726L7.70266 21.8461C7.20264 22.3461 6.60923 22.7679 5.90971 22.8714C4.89646 23.0214 3.54044 22.9302 2.50649 21.9948C1.42516 21.0164 1.38796 19.5335 1.60622 18.4402C1.73753 17.7824 2.14111 17.2256 2.61538 16.7514Z" stroke="#323232" stroke-opacity="0.2" stroke-width="1.5"/>
<circle cx="5.15505" cy="19.2754" r="1.91457" fill="#323232" fill-opacity="0.2"/>
</svg>
