<svg width="17" height="18" viewBox="0 0 17 18" fill="none" xmlns="http://www.w3.org/2000/svg">
<path d="M1 16.1998V11.7475L9.01406 3.73348L10.4261 2.32142C11.1216 1.62593 12.2492 1.62593 12.9447 2.32142L14.8784 4.2551C15.5739 4.95059 15.5739 6.07819 14.8784 6.77368L13.4663 8.18574L5.45226 16.1998H1Z" fill="white"/>
<path d="M13.4663 8.18574L14.8784 6.77368C15.5739 6.07819 15.5739 4.95059 14.8784 4.2551L12.9447 2.32142C12.2492 1.62593 11.1216 1.62593 10.4261 2.32142L9.01406 3.73348M13.4663 8.18574L5.45226 16.1998H1V11.7475L9.01406 3.73348M13.4663 8.18574L9.01406 3.73348" stroke="#01D281" stroke-width="1.66154" stroke-linecap="round" stroke-linejoin="round"/>
</svg>
